<svg width="28" height="24" viewBox="0 0 28 24" fill="none" xmlns="http://www.w3.org/2000/svg">
<path d="M19.1988 12.8512C20.5781 11.9261 21.5849 10.6576 22.0791 9.22201C22.5732 7.78646 22.5302 6.25531 21.956 4.84156C21.3818 3.42782 20.305 2.2018 18.8753 1.33405C17.4456 0.466309 15.7342 0 13.9791 0C12.2241 0 10.5127 0.466309 9.08298 1.33405C7.65329 2.2018 6.57644 3.42782 6.00223 4.84156C5.42803 6.25531 5.38502 7.78646 5.8792 9.22201C6.37337 10.6576 7.38016 11.9261 8.75949 12.8512C6.39598 13.6584 4.33374 14.9972 2.79262 16.7249C1.25149 18.4525 0.289254 20.5043 0.00848627 22.6615C-0.0118372 22.819 0.00442949 22.9784 0.0563571 23.1305C0.108285 23.2827 0.194856 23.4246 0.311129 23.5482C0.545954 23.7979 0.887502 23.9578 1.26064 23.9928C1.63378 24.0277 2.00793 23.9349 2.30081 23.7348C2.59368 23.5346 2.78127 23.2435 2.82231 22.9254C3.13125 20.581 4.44264 18.4158 6.50592 16.8434C8.5692 15.2711 11.2397 14.4019 14.0073 14.4019C16.7748 14.4019 19.4453 15.2711 21.5086 16.8434C23.5719 18.4158 24.8833 20.581 25.1922 22.9254C25.2305 23.2201 25.3954 23.4922 25.6553 23.6894C25.9151 23.8865 26.2513 23.9946 26.5991 23.9928H26.7539C27.1227 23.9566 27.4598 23.7976 27.6917 23.5505C27.9236 23.3034 28.0315 22.9882 27.992 22.6735C27.7099 20.5102 26.7425 18.4531 25.1934 16.7228C23.6444 14.9925 21.5721 13.6541 19.1988 12.8512ZM13.9791 11.9997C12.8661 11.9997 11.778 11.7183 10.8526 11.1912C9.92711 10.6641 9.2058 9.91484 8.77986 9.03827C8.35392 8.16168 8.24247 7.19712 8.45961 6.26655C8.67676 5.33598 9.21274 4.48119 9.99978 3.81029C10.7868 3.13938 11.7896 2.68249 12.8812 2.49739C13.9729 2.31228 15.1044 2.40728 16.1327 2.77038C17.1611 3.13347 18.04 3.74834 18.6584 4.53724C19.2767 5.32614 19.6068 6.25364 19.6068 7.20244C19.6068 8.47475 19.0139 9.69494 17.9585 10.5946C16.9031 11.4943 15.4717 11.9997 13.9791 11.9997Z" fill="#6B6B6B"/>
</svg>
