<svg width="15" height="15" viewBox="0 0 26 26" fill="none" xmlns="http://www.w3.org/2000/svg">
<path d="M21.1 25H5.00003C3.30003 25 1.90002 23.6 1.90002 21.9V13C1.90002 11.3 3.30003 9.90002 5.00003 9.90002H21.1C22.8 9.90002 24.2 11.3 24.2 13V21.9C24.2 23.6 22.8 25 21.1 25Z" stroke="#6B6B6B" stroke-width="2" stroke-miterlimit="10" stroke-linecap="round"/>
<path d="M16.6 9.79999H9.29996C8.69996 9.79999 8.09998 9.30001 8.09998 8.60001V5.5C8.09998 3 10.1 1 12.6 1H13.2C15.7 1 17.7 3 17.7 5.5V8.60001C17.8 9.30001 17.3 9.79999 16.6 9.79999Z" stroke="#6B6B6B" stroke-width="2" stroke-miterlimit="10" stroke-linecap="round"/>
<path d="M13 21C12.1 21 11.4 20.3 11.4 19.4V15.4C11.4 14.5 12.1 13.8 13 13.8C13.9 13.8 14.6 14.5 14.6 15.4V19.4C14.6 20.3 13.9 21 13 21Z" fill="#6B6B6B"/>
</svg>
