<svg width="30" height="21" viewBox="0 0 30 21" fill="none" xmlns="http://www.w3.org/2000/svg">
<path d="M27.1878 0H2.8122C1.25908 0 0 1.17521 0 2.625V18.375C0 19.8247 1.25908 21 2.8122 21H27.1878C28.7409 21 30 19.8247 30 18.375V2.625C30 1.17521 28.7409 0 27.1878 0ZM29.0626 17.986L20.1953 9.709L29.0626 4.43468V17.986ZM2.8122 0.875H27.1878C28.2216 0.875 29.0626 1.66001 29.0626 2.625V3.3978L16.1566 11.0746C15.4582 11.4899 14.5661 11.4771 13.8836 11.0439L0.937399 2.83041V2.625C0.937399 1.66001 1.77848 0.875 2.8122 0.875ZM0.937399 3.88728L9.92973 9.59223L0.937399 17.986V3.88728ZM27.1878 20.125H2.8122C2.04006 20.125 1.37615 19.6866 1.08921 19.0628L10.7069 10.0853L13.3573 11.7668C13.8662 12.0898 14.4549 12.2517 15.0444 12.2517C15.6046 12.2517 16.1658 12.1056 16.6597 11.8121L19.398 10.1832L28.9108 19.0628C28.6238 19.6866 27.9599 20.125 27.1878 20.125Z" fill="#6B6B6B"/>
</svg>
